<svg width="48" height="48" viewBox="0 0 48 48" fill="none" xmlns="http://www.w3.org/2000/svg">
<rect x="1.5" y="1.5" width="45" height="45" rx="10.5" stroke="white" stroke-width="3"/>
<rect x="11" y="13" width="3" height="6" rx="1.5" fill="white"/>
<path fill-rule="evenodd" clip-rule="evenodd" d="M27 0H36C42.6274 0 48 5.37258 48 12V36C48 42.6274 42.6274 48 36 48H31C29.8522 44.6166 28.9919 41.7736 28.3671 38.9888C32.3861 38.1076 36.0644 36.0787 38.2446 32.8371C38.707 32.1497 38.5245 31.2177 37.8371 30.7553C37.1497 30.293 36.2176 30.4755 35.7553 31.1629C34.122 33.5913 31.2045 35.2846 27.792 36.0461C27.3347 33.2911 27.0872 30.4283 27 27H21C21.1062 26.1755 21.2072 25.3813 21.3048 24.613C22.4898 15.2903 23.1909 9.77425 27 0ZM27.792 36.0461C26.52 36.3299 25.1792 36.4842 23.8105 36.4989C18.7881 36.5527 13.8798 34.7161 11.2051 31.1069C10.7119 30.4413 9.77245 30.3016 9.10687 30.7949C8.44129 31.2881 8.30158 32.2275 8.79483 32.8931C12.2169 37.5108 18.1957 39.5592 23.8426 39.4987C25.3584 39.4825 26.8859 39.3136 28.3671 38.9888C28.1469 38.0077 27.956 37.0338 27.792 36.0461ZM33 14.5C33 13.6716 33.6715 13 34.5 13C35.3284 13 36 13.6716 36 14.5V17.5C36 18.3284 35.3284 19 34.5 19C33.6715 19 33 18.3284 33 17.5V14.5Z" fill="white"/>
</svg>
