<svg width="48" height="48" viewBox="0 0 48 48" fill="none" xmlns="http://www.w3.org/2000/svg">
<mask id="path-1-inside-1_301_80" fill="white">
<path fill-rule="evenodd" clip-rule="evenodd" d="M12 0C5.37258 0 0 5.37258 0 12V36C0 42.6274 5.37258 48 12 48H36C42.6274 48 48 42.6274 48 36V12C48 5.37258 42.6274 0 36 0H12ZM9.54688 33H8V20.7305H9.54688V33ZM9.52344 18.1523C9.32031 18.3555 9.07422 18.457 8.78516 18.457C8.49609 18.457 8.24609 18.3555 8.03516 18.1523C7.83203 17.9414 7.73047 17.6914 7.73047 17.4023C7.73047 17.1133 7.83203 16.8672 8.03516 16.6641C8.24609 16.4609 8.49609 16.3594 8.78516 16.3594C9.07422 16.3594 9.32031 16.4609 9.52344 16.6641C9.72656 16.8672 9.82812 17.1133 9.82812 17.4023C9.82812 17.6914 9.72656 17.9414 9.52344 18.1523ZM23.8906 32.2148C22.75 32.9258 21.3945 33.2812 19.8242 33.2812C18.2461 33.2812 16.8789 32.9258 15.7227 32.2148C14.5742 31.5039 13.6875 30.4961 13.0625 29.1914C12.4453 27.8789 12.1367 26.332 12.1367 24.5508V24.5273C12.1367 22.7383 12.4492 21.1953 13.0742 19.8984C13.6992 18.5938 14.5859 17.5859 15.7344 16.875C16.8828 16.1641 18.2422 15.8086 19.8125 15.8086C21.3906 15.8086 22.75 16.1641 23.8906 16.875C25.0391 17.5859 25.9258 18.5938 26.5508 19.8984C27.1758 21.2031 27.4883 22.7461 27.4883 24.5273V24.5508C27.4883 26.332 27.1758 27.8789 26.5508 29.1914C25.9258 30.4961 25.0391 31.5039 23.8906 32.2148ZM16.6016 30.9141C17.5078 31.5078 18.582 31.8047 19.8242 31.8047C21.0664 31.8047 22.1367 31.5078 23.0352 30.9141C23.9414 30.3125 24.6367 29.4688 25.1211 28.3828C25.6133 27.2969 25.8594 26.0195 25.8594 24.5508V24.5273C25.8594 23.0508 25.6133 21.7695 25.1211 20.6836C24.6289 19.5977 23.9297 18.7617 23.0234 18.1758C22.1172 17.582 21.0469 17.2852 19.8125 17.2852C18.5781 17.2852 17.5078 17.582 16.6016 18.1758C15.6953 18.7617 14.9961 19.5977 14.5039 20.6836C14.0117 21.7617 13.7656 23.043 13.7656 24.5273V24.5508C13.7656 26.0273 14.0117 27.3086 14.5039 28.3945C14.9961 29.4805 15.6953 30.3203 16.6016 30.9141ZM38.8203 32.6953C37.9141 33.0859 36.8438 33.2812 35.6094 33.2812C34.4141 33.2812 33.3594 33.0898 32.4453 32.707C31.5391 32.3242 30.8164 31.7812 30.2773 31.0781C29.7461 30.375 29.4453 29.5547 29.375 28.6172L29.3633 28.4648H30.957L30.9805 28.6172C31.0508 29.2578 31.2891 29.8203 31.6953 30.3047C32.1094 30.7812 32.6562 31.1523 33.3359 31.418C34.0234 31.6758 34.8086 31.8047 35.6914 31.8047C36.5664 31.8047 37.332 31.6719 37.9883 31.4062C38.6445 31.1406 39.1523 30.7656 39.5117 30.2812C39.8789 29.7891 40.0625 29.2188 40.0625 28.5703V28.5586C40.0625 27.7383 39.7773 27.0781 39.207 26.5781C38.6367 26.0703 37.6953 25.668 36.3828 25.3711L34.5547 24.9609C32.9141 24.5938 31.707 24.043 30.9336 23.3086C30.168 22.5742 29.7852 21.6094 29.7852 20.4141V20.4023C29.793 19.5039 30.043 18.7109 30.5352 18.0234C31.0273 17.3359 31.707 16.7969 32.5742 16.4062C33.4414 16.0078 34.4336 15.8086 35.5508 15.8086C36.6445 15.8086 37.6133 16.0039 38.457 16.3945C39.3086 16.7852 39.9883 17.3281 40.4961 18.0234C41.0117 18.7188 41.3008 19.5195 41.3633 20.4258L41.375 20.5781H39.793L39.7695 20.4258C39.6914 19.7852 39.4648 19.2305 39.0898 18.7617C38.7148 18.293 38.2227 17.9297 37.6133 17.6719C37.0117 17.4141 36.3086 17.2852 35.5039 17.2852C34.6992 17.2852 33.9883 17.4141 33.3711 17.6719C32.7539 17.9297 32.2734 18.2891 31.9297 18.75C31.5859 19.2109 31.4141 19.7461 31.4141 20.3555V20.3789C31.4141 21.1523 31.6992 21.7891 32.2695 22.2891C32.8398 22.7812 33.7422 23.168 34.9766 23.4492L36.8047 23.8594C38.5391 24.25 39.7852 24.8086 40.543 25.5352C41.3086 26.2539 41.6914 27.2305 41.6914 28.4648V28.4766C41.6914 29.4531 41.4414 30.3008 40.9414 31.0195C40.4414 31.7383 39.7344 32.2969 38.8203 32.6953Z"/>
</mask>
<path fill-rule="evenodd" clip-rule="evenodd" d="M12 0C5.37258 0 0 5.37258 0 12V36C0 42.6274 5.37258 48 12 48H36C42.6274 48 48 42.6274 48 36V12C48 5.37258 42.6274 0 36 0H12ZM9.54688 33H8V20.7305H9.54688V33ZM9.52344 18.1523C9.32031 18.3555 9.07422 18.457 8.78516 18.457C8.49609 18.457 8.24609 18.3555 8.03516 18.1523C7.83203 17.9414 7.73047 17.6914 7.73047 17.4023C7.73047 17.1133 7.83203 16.8672 8.03516 16.6641C8.24609 16.4609 8.49609 16.3594 8.78516 16.3594C9.07422 16.3594 9.32031 16.4609 9.52344 16.6641C9.72656 16.8672 9.82812 17.1133 9.82812 17.4023C9.82812 17.6914 9.72656 17.9414 9.52344 18.1523ZM23.8906 32.2148C22.75 32.9258 21.3945 33.2812 19.8242 33.2812C18.2461 33.2812 16.8789 32.9258 15.7227 32.2148C14.5742 31.5039 13.6875 30.4961 13.0625 29.1914C12.4453 27.8789 12.1367 26.332 12.1367 24.5508V24.5273C12.1367 22.7383 12.4492 21.1953 13.0742 19.8984C13.6992 18.5938 14.5859 17.5859 15.7344 16.875C16.8828 16.1641 18.2422 15.8086 19.8125 15.8086C21.3906 15.8086 22.75 16.1641 23.8906 16.875C25.0391 17.5859 25.9258 18.5938 26.5508 19.8984C27.1758 21.2031 27.4883 22.7461 27.4883 24.5273V24.5508C27.4883 26.332 27.1758 27.8789 26.5508 29.1914C25.9258 30.4961 25.0391 31.5039 23.8906 32.2148ZM16.6016 30.9141C17.5078 31.5078 18.582 31.8047 19.8242 31.8047C21.0664 31.8047 22.1367 31.5078 23.0352 30.9141C23.9414 30.3125 24.6367 29.4688 25.1211 28.3828C25.6133 27.2969 25.8594 26.0195 25.8594 24.5508V24.5273C25.8594 23.0508 25.6133 21.7695 25.1211 20.6836C24.6289 19.5977 23.9297 18.7617 23.0234 18.1758C22.1172 17.582 21.0469 17.2852 19.8125 17.2852C18.5781 17.2852 17.5078 17.582 16.6016 18.1758C15.6953 18.7617 14.9961 19.5977 14.5039 20.6836C14.0117 21.7617 13.7656 23.043 13.7656 24.5273V24.5508C13.7656 26.0273 14.0117 27.3086 14.5039 28.3945C14.9961 29.4805 15.6953 30.3203 16.6016 30.9141ZM38.8203 32.6953C37.9141 33.0859 36.8438 33.2812 35.6094 33.2812C34.4141 33.2812 33.3594 33.0898 32.4453 32.707C31.5391 32.3242 30.8164 31.7812 30.2773 31.0781C29.7461 30.375 29.4453 29.5547 29.375 28.6172L29.3633 28.4648H30.957L30.9805 28.6172C31.0508 29.2578 31.2891 29.8203 31.6953 30.3047C32.1094 30.7812 32.6562 31.1523 33.3359 31.418C34.0234 31.6758 34.8086 31.8047 35.6914 31.8047C36.5664 31.8047 37.332 31.6719 37.9883 31.4062C38.6445 31.1406 39.1523 30.7656 39.5117 30.2812C39.8789 29.7891 40.0625 29.2188 40.0625 28.5703V28.5586C40.0625 27.7383 39.7773 27.0781 39.207 26.5781C38.6367 26.0703 37.6953 25.668 36.3828 25.3711L34.5547 24.9609C32.9141 24.5938 31.707 24.043 30.9336 23.3086C30.168 22.5742 29.7852 21.6094 29.7852 20.4141V20.4023C29.793 19.5039 30.043 18.7109 30.5352 18.0234C31.0273 17.3359 31.707 16.7969 32.5742 16.4062C33.4414 16.0078 34.4336 15.8086 35.5508 15.8086C36.6445 15.8086 37.6133 16.0039 38.457 16.3945C39.3086 16.7852 39.9883 17.3281 40.4961 18.0234C41.0117 18.7188 41.3008 19.5195 41.3633 20.4258L41.375 20.5781H39.793L39.7695 20.4258C39.6914 19.7852 39.4648 19.2305 39.0898 18.7617C38.7148 18.293 38.2227 17.9297 37.6133 17.6719C37.0117 17.4141 36.3086 17.2852 35.5039 17.2852C34.6992 17.2852 33.9883 17.4141 33.3711 17.6719C32.7539 17.9297 32.2734 18.2891 31.9297 18.75C31.5859 19.2109 31.4141 19.7461 31.4141 20.3555V20.3789C31.4141 21.1523 31.6992 21.7891 32.2695 22.2891C32.8398 22.7812 33.7422 23.168 34.9766 23.4492L36.8047 23.8594C38.5391 24.25 39.7852 24.8086 40.543 25.5352C41.3086 26.2539 41.6914 27.2305 41.6914 28.4648V28.4766C41.6914 29.4531 41.4414 30.3008 40.9414 31.0195C40.4414 31.7383 39.7344 32.2969 38.8203 32.6953Z" fill="white"/>
<path d="M8 33H5.38182V35.6182H8V33ZM9.54688 33V35.6182H12.1651V33H9.54688ZM8 20.7305V18.1123H5.38182V20.7305H8ZM9.54688 20.7305H12.1651V18.1123H9.54688V20.7305ZM9.52344 18.1523L11.3748 20.0037L11.3922 19.9862L11.4094 19.9684L9.52344 18.1523ZM8.03516 18.1523L6.14923 19.9684L6.18349 20.004L6.21908 20.0383L8.03516 18.1523ZM8.03516 16.6641L6.21908 14.7781L6.20129 14.7953L6.18382 14.8127L8.03516 16.6641ZM23.8906 32.2148L22.5125 29.9887L22.5057 29.9929L23.8906 32.2148ZM15.7227 32.2148L14.3446 34.441L14.3513 34.4452L15.7227 32.2148ZM13.0625 29.1914L10.6932 30.3055L10.6972 30.3141L10.7013 30.3225L13.0625 29.1914ZM13.0742 19.8984L15.4328 21.0351L15.4355 21.0296L13.0742 19.8984ZM23.8906 16.875L22.5057 19.0969L22.5125 19.1011L23.8906 16.875ZM26.5508 29.1914L28.912 30.3225L28.9146 30.3171L26.5508 29.1914ZM23.0352 30.9141L24.4787 33.0984L24.4831 33.0954L23.0352 30.9141ZM25.1211 28.3828L22.7364 27.302L22.7332 27.3091L22.73 27.3163L25.1211 28.3828ZM23.0234 18.1758L21.5886 20.3658L21.5952 20.3701L21.6019 20.3744L23.0234 18.1758ZM16.6016 18.1758L18.0231 20.3744L18.0298 20.3701L18.0364 20.3658L16.6016 18.1758ZM14.5039 20.6836L16.8856 21.7709L16.8886 21.7644L14.5039 20.6836ZM38.8203 32.6953L39.8567 35.0997L39.8665 35.0954L38.8203 32.6953ZM32.4453 32.707L31.4265 35.1189L31.4339 35.122L32.4453 32.707ZM30.2773 31.0781L28.1884 32.6565L28.1939 32.6638L28.1995 32.6711L30.2773 31.0781ZM29.375 28.6172L31.9859 28.4214L31.9855 28.4164L29.375 28.6172ZM29.3633 28.4648V25.8467H26.536L26.7528 28.6656L29.3633 28.4648ZM30.957 28.4648L33.5448 28.0667L33.2032 25.8467H30.957V28.4648ZM30.9805 28.6172L33.583 28.3315L33.5768 28.2751L33.5682 28.2191L30.9805 28.6172ZM31.6953 30.3047L29.6893 31.9872L29.704 32.0047L29.7189 32.0219L31.6953 30.3047ZM33.3359 31.418L32.3829 33.8565L32.3997 33.8631L32.4166 33.8694L33.3359 31.418ZM39.5117 30.2812L37.4132 28.7157L37.4091 28.7212L39.5117 30.2812ZM39.207 26.5781L37.4659 28.5335L37.4735 28.5402L37.481 28.5468L39.207 26.5781ZM36.3828 25.3711L36.9604 22.8174L36.956 22.8164L36.3828 25.3711ZM34.5547 24.9609L35.1279 22.4063L35.1265 22.406L34.5547 24.9609ZM30.9336 23.3086L29.1212 25.1981L29.1308 25.2073L30.9336 23.3086ZM29.7852 20.4023L27.1671 20.3796L27.167 20.391V20.4023H29.7852ZM32.5742 16.4062L33.6495 18.7934L33.6584 18.7894L33.6673 18.7853L32.5742 16.4062ZM38.457 16.3945L37.3571 18.7705L37.3654 18.7743L38.457 16.3945ZM40.4961 18.0234L38.3818 19.5676L38.3874 19.5753L38.3931 19.583L40.4961 18.0234ZM41.3633 20.4258L38.7513 20.6059L38.752 20.6163L38.7528 20.6266L41.3633 20.4258ZM41.375 20.5781V23.1963H44.2023L43.9855 20.3773L41.375 20.5781ZM39.793 20.5781L37.2052 20.9762L37.5468 23.1963H39.793V20.5781ZM39.7695 20.4258L37.1706 20.7427L37.1756 20.7834L37.1818 20.8239L39.7695 20.4258ZM37.6133 17.6719L36.5819 20.0784L36.5931 20.0831L37.6133 17.6719ZM32.2695 22.2891L30.5435 24.2578L30.5512 24.2645L30.5589 24.2712L32.2695 22.2891ZM34.9766 23.4492L34.3949 26.002L34.4034 26.0039L34.9766 23.4492ZM36.8047 23.8594L37.38 21.3052L37.3779 21.3047L36.8047 23.8594ZM40.543 25.5352L38.731 27.425L38.741 27.4346L38.751 27.444L40.543 25.5352ZM2.61818 12C2.61818 6.81857 6.81857 2.61818 12 2.61818V-2.61818C3.9266 -2.61818 -2.61818 3.9266 -2.61818 12H2.61818ZM2.61818 36V12H-2.61818V36H2.61818ZM12 45.3818C6.81856 45.3818 2.61818 41.1814 2.61818 36H-2.61818C-2.61818 44.0734 3.9266 50.6182 12 50.6182V45.3818ZM36 45.3818H12V50.6182H36V45.3818ZM45.3818 36C45.3818 41.1814 41.1814 45.3818 36 45.3818V50.6182C44.0734 50.6182 50.6182 44.0734 50.6182 36H45.3818ZM45.3818 12V36H50.6182V12H45.3818ZM36 2.61818C41.1814 2.61818 45.3818 6.81856 45.3818 12H50.6182C50.6182 3.9266 44.0734 -2.61818 36 -2.61818V2.61818ZM12 2.61818H36V-2.61818H12V2.61818ZM8 35.6182H9.54688V30.3818H8V35.6182ZM5.38182 20.7305V33H10.6182V20.7305H5.38182ZM9.54688 18.1123H8V23.3487H9.54688V18.1123ZM12.1651 33V20.7305H6.92869V33H12.1651ZM8.78516 21.0752C9.76371 21.0752 10.6772 20.7013 11.3748 20.0037L7.6721 16.301C7.79501 16.1781 7.96741 16.0516 8.18772 15.9607C8.40771 15.8699 8.61661 15.8388 8.78516 15.8388V21.0752ZM6.21908 20.0383C6.91076 20.7043 7.80899 21.0752 8.78516 21.0752V15.8388C8.95414 15.8388 9.15655 15.87 9.36628 15.9552C9.57539 16.0402 9.73726 16.1567 9.85124 16.2664L6.21908 20.0383ZM5.11229 17.4023C5.11229 18.3785 5.48316 19.2767 6.14923 19.9684L9.92109 16.3363C10.0308 16.4502 10.1473 16.6121 10.2323 16.8212C10.3175 17.031 10.3487 17.2334 10.3487 17.4023H5.11229ZM6.18382 14.8127C5.48624 15.5103 5.11229 16.4238 5.11229 17.4023H10.3487C10.3487 17.5709 10.3176 17.7798 10.2268 17.9998C10.1359 18.2201 10.0094 18.3925 9.88649 18.5154L6.18382 14.8127ZM8.78516 13.7412C7.80899 13.7412 6.91076 14.1121 6.21908 14.7781L9.85124 18.55C9.73726 18.6597 9.57539 18.7763 9.36628 18.8612C9.15655 18.9464 8.95414 18.9776 8.78516 18.9776V13.7412ZM11.3748 14.8127C10.6772 14.1151 9.76371 13.7412 8.78516 13.7412V18.9776C8.61661 18.9776 8.40771 18.9465 8.18772 18.8557C7.96741 18.7648 7.79501 18.6383 7.6721 18.5154L11.3748 14.8127ZM12.4463 17.4023C12.4463 16.4238 12.0724 15.5103 11.3748 14.8127L7.6721 18.5154C7.54919 18.3925 7.4227 18.2201 7.33177 17.9998C7.24099 17.7798 7.20994 17.5709 7.20994 17.4023H12.4463ZM11.4094 19.9684C12.0754 19.2767 12.4463 18.3785 12.4463 17.4023H7.20994C7.20994 17.2334 7.24109 17.031 7.3263 16.8212C7.41125 16.6121 7.52775 16.4502 7.63751 16.3363L11.4094 19.9684ZM19.8242 35.8994C21.8004 35.8994 23.6536 35.4477 25.2755 34.4368L22.5057 29.9929C21.8464 30.4039 20.9887 30.6631 19.8242 30.6631V35.8994ZM14.3513 34.4452C15.9833 35.4486 17.842 35.8994 19.8242 35.8994V30.6631C18.6502 30.6631 17.7745 30.403 17.094 29.9845L14.3513 34.4452ZM10.7013 30.3225C11.5265 32.0452 12.7399 33.4476 14.3446 34.441L17.1007 29.9887C16.4085 29.5602 15.8485 28.947 15.4237 28.0603L10.7013 30.3225ZM9.51854 24.5508C9.51854 26.6312 9.87909 28.5743 10.6932 30.3055L15.4318 28.0773C15.0115 27.1835 14.7549 26.0328 14.7549 24.5508H9.51854ZM9.51854 24.5273V24.5508H14.7549V24.5273H9.51854ZM10.7156 18.7618C9.88344 20.4886 9.51854 22.438 9.51854 24.5273H14.7549C14.7549 23.0386 15.015 21.902 15.4328 21.0351L10.7156 18.7618ZM14.3563 14.6489C12.7516 15.6422 11.5382 17.0447 10.713 18.7673L15.4355 21.0296C15.8602 20.1428 16.4202 19.5297 17.1125 19.1011L14.3563 14.6489ZM19.8125 13.1904C17.8358 13.1904 15.9822 13.6423 14.3563 14.6489L17.1125 19.1011C17.7834 18.6858 18.6485 18.4268 19.8125 18.4268V13.1904ZM25.2755 14.6531C23.6516 13.6409 21.7937 13.1904 19.8125 13.1904V18.4268C20.9876 18.4268 21.8484 18.6872 22.5057 19.0969L25.2755 14.6531ZM28.912 18.7673C28.0868 17.0447 26.8734 15.6422 25.2687 14.6489L22.5125 19.1011C23.2048 19.5297 23.7648 20.1428 24.1895 21.0296L28.912 18.7673ZM30.1065 24.5273C30.1065 22.4432 29.7407 20.4971 28.912 18.7673L24.1895 21.0296C24.6109 21.9091 24.8701 23.049 24.8701 24.5273H30.1065ZM30.1065 24.5508V24.5273H24.8701V24.5508H30.1065ZM28.9146 30.3171C29.7405 28.5828 30.1065 26.6355 30.1065 24.5508H24.8701C24.8701 26.0286 24.6111 27.175 24.1869 28.0658L28.9146 30.3171ZM25.2687 34.441C26.8734 33.4476 28.0868 32.0452 28.912 30.3225L24.1895 28.0603C23.7648 28.947 23.2048 29.5602 22.5125 29.9887L25.2687 34.441ZM19.8242 29.1865C19.0151 29.1865 18.4563 28.9992 18.0364 28.7241L15.1667 33.1041C16.5593 34.0165 18.149 34.4229 19.8242 34.4229V29.1865ZM21.5916 28.7298C21.1842 28.999 20.634 29.1865 19.8242 29.1865V34.4229C21.4989 34.4229 23.0892 34.0166 24.4787 33.0983L21.5916 28.7298ZM22.73 27.3163C22.4283 27.9925 22.0414 28.4312 21.5872 28.7327L24.4831 33.0954C25.8414 32.1938 26.8451 30.945 27.5122 29.4493L22.73 27.3163ZM23.2412 24.5508C23.2412 25.7311 23.0433 26.6248 22.7364 27.302L27.5058 29.4636C28.1832 27.969 28.4776 26.308 28.4776 24.5508H23.2412ZM23.2412 24.5273V24.5508H28.4776V24.5273H23.2412ZM22.7364 21.7644C23.0426 22.44 23.2412 23.337 23.2412 24.5273H28.4776C28.4776 22.7645 28.184 21.0991 27.5058 19.6028L22.7364 21.7644ZM21.6019 20.3744C22.043 20.6596 22.429 21.0861 22.7364 21.7644L27.5058 19.6028C26.8289 18.1092 25.8164 16.8638 24.445 15.9771L21.6019 20.3744ZM19.8125 19.9033C20.6102 19.9033 21.166 20.0889 21.5886 20.3658L24.4583 15.9858C23.0683 15.0751 21.4835 14.667 19.8125 14.667V19.9033ZM18.0364 20.3658C18.459 20.0889 19.0148 19.9033 19.8125 19.9033V14.667C18.1415 14.667 16.5567 15.0751 15.1667 15.9858L18.0364 20.3658ZM16.8886 21.7644C17.196 21.0861 17.582 20.6596 18.0231 20.3744L15.18 15.9771C13.8086 16.8638 12.7961 18.1092 12.1192 19.6028L16.8886 21.7644ZM16.3838 24.5273C16.3838 23.3262 16.5834 22.433 16.8856 21.7709L12.1222 19.5963C11.44 21.0905 11.1474 22.7597 11.1474 24.5273H16.3838ZM16.3838 24.5508V24.5273H11.1474V24.5508H16.3838ZM16.8886 27.3137C16.5824 26.6382 16.3838 25.7411 16.3838 24.5508H11.1474C11.1474 26.3136 11.441 27.979 12.1192 29.4754L16.8886 27.3137ZM18.0364 28.7241C17.5868 28.4295 17.1971 27.9944 16.8886 27.3137L12.1192 29.4754C12.7951 30.9665 13.8039 32.2112 15.1667 33.1041L18.0364 28.7241ZM35.6094 35.8994C37.1137 35.8994 38.5521 35.662 39.8567 35.0997L37.784 30.291C37.2761 30.5099 36.5738 30.6631 35.6094 30.6631V35.8994ZM31.4339 35.122C32.7271 35.6636 34.1368 35.8994 35.6094 35.8994V30.6631C34.6914 30.6631 33.9917 30.5161 33.4567 30.2921L31.4339 35.122ZM28.1995 32.6711C29.0443 33.7729 30.1495 34.5794 31.4265 35.1189L33.4641 30.2952C32.9286 30.069 32.5885 29.7896 32.3551 29.4851L28.1995 32.6711ZM26.7642 28.813C26.8694 30.2168 27.3335 31.525 28.1884 32.6565L32.3663 29.4998C32.1587 29.225 32.0212 28.8925 31.9858 28.4214L26.7642 28.813ZM26.7528 28.6656L26.7645 28.818L31.9855 28.4164L31.9738 28.264L26.7528 28.6656ZM30.957 25.8467H29.3633V31.083H30.957V25.8467ZM33.5682 28.2191L33.5448 28.0667L28.3693 28.863L28.3927 29.0153L33.5682 28.2191ZM33.7013 28.6222C33.6344 28.5424 33.5981 28.4685 33.583 28.3315L28.3779 28.9028C28.5035 30.0472 28.9437 31.0982 29.6893 31.9872L33.7013 28.6222ZM34.2889 28.9794C33.9419 28.8438 33.7675 28.6978 33.6717 28.5875L29.7189 32.0219C30.4512 32.8647 31.3706 33.4609 32.3829 33.8565L34.2889 28.9794ZM35.6914 29.1865C35.0607 29.1865 34.596 29.0943 34.2552 28.9665L32.4166 33.8694C33.4509 34.2573 34.5565 34.4229 35.6914 34.4229V29.1865ZM37.006 28.9793C36.7259 29.0927 36.3066 29.1865 35.6914 29.1865V34.4229C36.8262 34.4229 37.9381 34.2511 38.9706 33.8332L37.006 28.9793ZM37.4091 28.7212C37.383 28.7564 37.2947 28.8625 37.006 28.9793L38.9706 33.8332C39.9943 33.4188 40.9217 32.7749 41.6144 31.8413L37.4091 28.7212ZM37.4443 28.5703C37.4443 28.6445 37.4343 28.6766 37.4326 28.6821C37.4313 28.686 37.4288 28.6948 37.4132 28.7157L41.6103 31.8468C42.3344 30.8761 42.6807 29.7493 42.6807 28.5703H37.4443ZM37.4443 28.5586V28.5703H42.6807V28.5586H37.4443ZM37.481 28.5468C37.4894 28.5541 37.4846 28.5513 37.4741 28.537C37.4691 28.5302 37.4637 28.5221 37.4584 28.5129C37.4531 28.5038 37.4487 28.4948 37.4451 28.4865C37.4375 28.4689 37.4367 28.4611 37.4381 28.4686C37.4397 28.4769 37.4443 28.5053 37.4443 28.5586H42.6807C42.6807 27.0536 42.1205 25.6505 40.933 24.6094L37.481 28.5468ZM35.8052 27.9248C36.9696 28.1882 37.3915 28.4672 37.4659 28.5335L40.9481 24.6228C39.882 23.6735 38.421 23.1478 36.9604 22.8174L35.8052 27.9248ZM33.9815 27.5156L35.8096 27.9258L36.956 22.8164L35.1279 22.4063L33.9815 27.5156ZM29.1308 25.2073C30.3916 26.4044 32.1226 27.0996 33.9829 27.5159L35.1265 22.406C33.7055 22.0879 33.0224 21.6815 32.7364 21.4099L29.1308 25.2073ZM27.167 20.4141C27.167 22.2234 27.7733 23.9052 29.1212 25.1981L32.746 21.4191C32.5626 21.2432 32.4033 20.9953 32.4033 20.4141H27.167ZM27.167 20.4023V20.4141H32.4033V20.4023H27.167ZM28.4063 16.4994C27.5803 17.6532 27.1793 18.978 27.1671 20.3796L32.4032 20.4251C32.4067 20.0298 32.5057 19.7687 32.664 19.5475L28.4063 16.4994ZM31.4989 14.0191C30.2643 14.5752 29.1997 15.3911 28.4063 16.4994L32.664 19.5475C32.855 19.2808 33.1498 19.0185 33.6495 18.7934L31.4989 14.0191ZM35.5508 13.1904C34.1201 13.1904 32.7448 13.4466 31.4811 14.0272L33.6673 18.7853C34.138 18.5691 34.7471 18.4268 35.5508 18.4268V13.1904ZM39.557 14.0186C38.313 13.4427 36.9581 13.1904 35.5508 13.1904V18.4268C36.331 18.4268 36.9136 18.5651 37.3571 18.7704L39.557 14.0186ZM42.6104 16.4793C41.8158 15.3912 40.7701 14.5751 39.5487 14.0148L37.3654 18.7743C37.8471 18.9952 38.1608 19.265 38.3818 19.5676L42.6104 16.4793ZM43.9753 20.2456C43.8801 18.8663 43.4278 17.5813 42.5991 16.4639L38.3931 19.583C38.5957 19.8562 38.7214 20.1727 38.7513 20.6059L43.9753 20.2456ZM43.9855 20.3773L43.9738 20.225L38.7528 20.6266L38.7645 20.7789L43.9855 20.3773ZM39.793 23.1963H41.375V17.9599H39.793V23.1963ZM37.1818 20.8239L37.2052 20.9762L42.3807 20.18L42.3573 20.0277L37.1818 20.8239ZM37.0454 20.3973C37.0939 20.4579 37.1467 20.5469 37.1706 20.7427L42.3685 20.1088C42.2361 19.0234 41.8358 18.003 41.1343 17.1262L37.0454 20.3973ZM36.5931 20.0831C36.8438 20.1892 36.9691 20.3019 37.0454 20.3973L41.1343 17.1262C40.4606 16.284 39.6016 15.6702 38.6334 15.2606L36.5931 20.0831ZM35.5039 19.9033C36.0332 19.9033 36.3719 19.9884 36.5819 20.0784L38.6446 15.2654C37.6515 14.8398 36.584 14.667 35.5039 14.667V19.9033ZM34.3803 20.0878C34.6199 19.9877 34.9769 19.9033 35.5039 19.9033V14.667C34.4216 14.667 33.3567 14.8405 32.3619 15.256L34.3803 20.0878ZM34.0285 20.3152C34.0488 20.288 34.1244 20.1946 34.3803 20.0878L32.3619 15.256C31.3834 15.6647 30.4981 16.2901 29.8309 17.1848L34.0285 20.3152ZM34.0322 20.3555C34.0322 20.3264 34.0343 20.3089 34.0354 20.3012C34.0366 20.2936 34.0372 20.2931 34.0357 20.2977C34.0342 20.3023 34.0319 20.308 34.0292 20.3132C34.0266 20.3184 34.0256 20.3191 34.0285 20.3152L29.8309 17.1848C29.1291 18.1259 28.7959 19.218 28.7959 20.3555H34.0322ZM34.0322 20.3789V20.3555H28.7959V20.3789H34.0322ZM33.9955 20.3204C33.9793 20.3061 33.9792 20.3034 33.9872 20.3141C33.9957 20.3253 34.0071 20.3434 34.0174 20.3664C34.0277 20.3893 34.0322 20.4069 34.0338 20.4144C34.0351 20.4212 34.0322 20.4109 34.0322 20.3789H28.7959C28.7959 21.8894 29.3935 23.2495 30.5435 24.2578L33.9955 20.3204ZM35.5582 20.8965C34.4918 20.6535 34.0764 20.3901 33.9801 20.307L30.5589 24.2712C31.6033 25.1724 32.9926 25.6824 34.3949 26.002L35.5582 20.8965ZM37.3779 21.3047L35.5497 20.8945L34.4034 26.0039L36.2315 26.414L37.3779 21.3047ZM42.3549 23.6453C41.0902 22.4327 39.2943 21.7363 37.38 21.3052L36.2294 26.4136C37.7839 26.7637 38.4801 27.1845 38.731 27.425L42.3549 23.6453ZM44.3096 28.4648C44.3096 26.6454 43.7206 24.9271 42.3349 23.6263L38.751 27.444C38.8966 27.5807 39.0732 27.8155 39.0732 28.4648H44.3096ZM44.3096 28.4766V28.4648H39.0732V28.4766H44.3096ZM43.0907 32.5147C43.9307 31.3071 44.3096 29.9234 44.3096 28.4766H39.0732C39.0732 28.9828 38.9521 29.2944 38.7921 29.5244L43.0907 32.5147ZM39.8665 35.0954C41.1618 34.5308 42.277 33.6843 43.0907 32.5147L38.7921 29.5244C38.6058 29.7922 38.3069 30.063 37.7741 30.2952L39.8665 35.0954Z" fill="white" mask="url(#path-1-inside-1_301_80)"/>
</svg>
